@startuml

class Node{
- edgeDictOut
- edgeDictIn
- pos
- id
- distance
- previous
- visited
+ __hash__
+ __gt__
+ __eq__
+ set_visited
+ __repr__
}

class DiGraph{
- nodeDict
- mCount
- edge_Size
- node_Size
+ v_size()
+ e_size()
+ get_all_v()
+ all_in_edges_of_node()
+ all_out_edges_of_node()
+ get_mc()
+ add_edge()
+ add_node()
+ remove_node()
+ remove_edge()
+ getJsonGraph
+ __repr__()
}

class GraphAlgo{
- graph
+ __init__()
+ get_graph()
+ load_from_json()
+ save_to_json()
+ shortest_path()
+ dijkstra
+ TSP()
+ maxDistance
+ centerPoint()
+ plot_graph()
+ __repr__()
}
class Main{
+ check0
+ check1
+ check2
+ check3
}

DiGraph <|-- Node
Main <|-- GraphAlgo
Main <|-- DiGraph

@enduml